<?xml version="1.0" encoding="UTF-8"?><svg id="Capa_1" xmlns="http://www.w3.org/2000/svg" viewBox="0 0 383.17 383.13"><defs><style>.cls-1{fill:#293939;}.cls-1,.cls-2,.cls-3,.cls-4,.cls-5,.cls-6,.cls-7,.cls-8{stroke-width:0px;}.cls-2{fill:#537982;}.cls-3{fill:#19b59b;}.cls-4{fill:#3e5959;}.cls-5{fill:#c100f6;}.cls-6{fill:#fe7cf6;}.cls-7{fill:#fefefe;}.cls-8{fill:#fe00f6;}</style></defs><path class="cls-7" d="M383.17,181.12c-2.06-.21-1.56-1.94-1.73-3.12-2.8-18.64-9.86-35.41-22.04-49.88-15.89-18.88-35.82-30.91-60.26-35.22-2.04-.36-4.27-.17-6.04-1.59-.92-3.41,1.6-3.68,3.82-4.06,13.14-2.28,26.31-4.41,39.47-6.61,5.04-.84,10.07-1.76,15.13-2.49,2.79-.4,4.75-1.67,6.32-4.07,6.42-9.81,12.98-19.52,19.46-29.28,2.4-3.61,2.3-3.97-1.39-6.46-3.2-2.16-6.52-4.17-9.62-6.47-2.55-1.88-4.09-1.3-5.72,1.22-4.68,7.22-9.59,14.29-14.25,21.52-1.89,2.93-4.22,4.52-7.75,5.1-20.55,3.33-41.08,6.79-61.62,10.22-4.92.82-4.98.9-5,5.97-.02,3.87.06,7.73-.04,11.59-.04,1.48-.02,3.06-1.74,3.82-1.57.55-3.19.47-4.8.48-18.75.01-37.5.01-56.25,0-1.61,0-3.24.07-4.79-.49-2.16-1.19-1.64-3.17-1.28-4.96,2.77-13.96,10.91-23.42,24.53-27.43,17.81-5.25,36-9.09,53.96-13.79,12.77-3.34,10.63-.57,10.8-13.66.11-8.6.04-17.19,0-25.79-.02-4.23-.32-4.52-4.39-4.56-3.74-.04-7.48-.03-11.21,0-4.46.03-4.7.25-4.74,4.59-.04,4.86,0,9.72-.01,14.58-.03,5.8-.42,6.29-5.91,7.69-14.48,3.71-29.02,7.22-43.47,11.05-24.07,6.37-40.26,27.16-40.38,52.1-.09,5.61.6,11.23-.42,16.81-.64,1.27-1.79,1.3-2.89.94-7.07-2.33-14.14-4.67-21.05-7.44-.46-.18-.77-.62-1.07-1.02-1.43-3.58-2.28-7.36-3.88-10.89-6.86-15.19-18.47-25.06-34.07-30.44-7.77-2.68-15.61-5.17-23.39-7.82-4.54-1.55-5.06-2.25-5.1-6.98-.05-5.35-.1-10.71.02-16.06.06-2.87-1.02-4.07-3.94-3.97-4.23.14-8.47.12-12.7,0-2.67-.08-3.84.87-3.82,3.66.08,10.96.09,21.92,0,32.88-.03,3.01,1.59,4.08,4.08,4.89,13.14,4.29,26.29,8.57,39.34,13.13,10.71,3.74,18.43,10.66,21.77,21.85.08,1.16-.66,1.82-1.54,2.33-4.31,2.47-8.36,5.25-11.58,9.12-.48.58-1.23.81-2,.86-7.44-1.51-14.79-3.36-22.36-4.36-20.78-2.73-40.99-.16-60.94,5.69-11.05,3.25-21.46,8.07-31.88,12.87-2.58,1.19-3.86,2.86-3.71,5.78.16,3.11.07,6.23.03,9.35-.03,2.36,1.04,3.4,3.39,3.38,3.74-.02,7.48-.07,11.22.01,19.03.42,37.83,2.24,55.68,9.59,15.82,6.51,29.07,16.79,41.53,28.24,2.5,2.3,1.79,5.25,1.92,8.06.61,4.46-1.11,7.68-4.51,10.7-19.92,17.68-42.14,30.43-69.13,33.45-11.64,1.3-23.29,2.09-35.01,1.85-4.86-.1-5.04.19-5.08,5.02,0,1.37.19,2.77-.04,4.1-.99,5.74,1.67,8.64,6.81,11.02,15.56,7.2,31.45,13.15,48.42,16.05,19.82,3.38,39.41,2.38,58.87-2.4,1.57-.39,3.13-.85,4.75-.99.5,0,1.08-.03,1.43.31,4.02,3.94,8.55,7.19,13.3,10.16.3.19.38.63.46,1-2.94,11.53-10.7,18.6-21.51,22.45-12.68,4.51-25.52,8.59-38.29,12.83q-5.37,1.78-5.38,7.28c0,9.97-.02,19.94,0,29.91.01,4.4.23,4.59,4.69,4.61,3.99.02,7.98-.08,11.97.03,2.74.08,3.8-1.06,3.76-3.76-.08-5.48-.07-10.97,0-16.45.05-4.51.6-5.26,4.93-6.73,7.79-2.64,15.62-5.16,23.41-7.82,18.78-6.43,31.13-19.13,36.97-38.12.33-1.07.53-2.18,1.06-3.19.77-1.23,1.99-1.86,3.29-2.31,5.98-2.09,12-4.08,18.04-6.01,1.26-.4,2.68-.95,3.68.61,1.15,5.56.36,11.18.51,16.76-.4,24.06,15.48,45.19,39.12,51.92,14.75,4.2,29.73,7.53,44.58,11.37,5.7,1.47,5.99,1.83,6.01,7.59.02,5.24.02,10.47,0,15.71,0,1.6.2,3.28-1.02,4.62"/><path class="cls-8" d="M181.05,108.51c.08-5.98.15-11.96.23-17.93.44-.45.95-.83,1.58-.88,6.38-.51,12.75-.48,19.13-.02.62.04,1.14.44,1.64.81,22.44,0,44.87,0,67.31,0,1.02-.86,2.25-1.02,3.51-1.03,4.98-.06,9.96-.09,14.93.01,1.53.03,2.99.3,3.96,1.67,44.81,5.03,80.64,38.96,88.52,83.65.37,2.1-.22,4.47,1.32,6.33v3.74c-.61,1.25-.61,2.49,0,3.74v2.99c-1.44,1.29-3.22,1.21-4.96,1.21-56.68.02-113.36.03-170.04,0-1.25,0-2.49-.03-3.72-.3-.69-.15-1.35-.41-1.96-.76-14.05-10.64-21.6-24.86-22.33-42.37-.5-11.92-.11-23.88-.09-35.83,0-1.72-.22-3.51.96-5.02Z"/><path class="cls-6" d="M203.58,191.59c59.87,0,119.73,0,179.6,0v11.22c-.8,9.98-3.26,19.54-7.25,28.72-8.93,20.52-23.03,36.48-42.22,47.94-12.7,7.58-26.46,12.02-41.18,13.52-7.27,1.36-14.59.56-21.89.7-22.3.18-44.61.18-66.91,0-6.09.18-12.18.07-18.27.06-1.48,0-3.01.03-4.2-1.13-.05-6-.11-11.99-.16-17.99-1.15-1.37-1-3.03-1.01-4.63-.02-11.7-.28-23.41.06-35.1.48-16.84,7.52-30.71,20.12-41.81.96-.84,1.96-1.53,3.31-1.51Z"/><path class="cls-4" d="M203.62,292.66c.86,14.89,10.2,26.93,24.6,30.76,20.43,5.42,40.95,10.49,61.48,15.52,3.01.74,3.8,1.93,3.76,4.94-.19,13.08-.08,26.17-.08,39.25h-22.45c0-7.1-.27-14.21.11-21.29.2-3.69-1.19-4.8-4.49-5.6-15.1-3.62-30.22-7.24-45.19-11.36-24.13-6.64-40.67-28.46-40.11-52.25,7.45,0,14.9.01,22.36.02Z"/><path class="cls-3" d="M383.17,188.6c-1.09-1.25-1.14-2.49,0-3.74v3.74Z"/><path class="cls-4" d="M181.05,108.51c.03,11.84.31,23.69.04,35.52-.43,19.25,6.81,34.8,21.68,46.9-.42,1.8-2.05,1.71-3.24,1.72-13.03.13-26.06.33-39.09-.08-.38-.01-.72-.18-1.08-.29-.45-.19-.82-.5-1.11-.9-.9-1.74-.65-3.64-.73-5.5-.16-3.88-.48-4.29-4.37-4.32-10.22-.08-20.45-.02-30.67-.03q-9.85,0-9.85-9.9c0-13.34.02-26.68,0-40.02-.01-5.37,1.46-10.33,3.84-15.07.91-1.81,2.05-3.43,4.05-4.21,3.78-4.95,9.07-7.99,14.19-11.26,5.84-4.07,16.81-4.46,22.6-.8,7.91,2.74,15.82,5.49,23.74,8.23Z"/><path class="cls-2" d="M158.76,191.65c13.38-.02,26.75-.02,40.13-.08,1.3,0,2.75.51,3.89-.63.27.22.54.44.8.65-10.82,8.83-18.45,19.68-21.23,33.57-.65,3.27-1.2,6.57-1.2,9.94,0,13.18-.03,26.36-.05,39.54-7.98,2.59-16.07,4.86-23.78,8.25-5.83,3.34-18.68,2.48-22.64-1.5-5.68-2.22-10.06-6.2-14.15-10.55-1.81-.64-2.64-2.21-3.47-3.74-2.78-5.12-4.37-10.59-4.39-16.44-.05-14.2-.05-28.4,0-42.59.02-5.65.79-6.4,6.56-6.42,11.08-.05,22.17,0,33.25-.03,4.83-.01,4.91-.16,5.08-5.07.06-1.71-.24-3.54,1.21-4.91Z"/><path class="cls-4" d="M158.76,191.65c-.02,2.62-.2,5.25-.02,7.85.19,2.67-.85,3.39-3.42,3.37-12.46-.11-24.93.06-37.4-.13-3.26-.05-4.25.79-4.2,4.14.19,14.21.17,28.42.04,42.63-.07,7.9,2.56,14.84,6.75,21.34-20.49,6.22-41.32,7.41-62.45,4.23-19.8-2.98-38.15-10.1-55.81-19.26-1.69-.88-2.29-1.88-2.23-3.74.13-4.11.2-8.23-.02-12.33-.14-2.58.55-3.37,3.24-3.33,7.84.1,15.69-.14,23.54-.39,31.65-1.01,58.74-12.66,82.04-33.86,3.33-3.03,5.84-5.87,5.1-10.59,1.42-1.36,3.23-1.17,4.95-1.17,11.6-.04,23.19-.04,34.79,0,1.73,0,3.53-.15,4.98,1.14l.11.11Z"/><path class="cls-1" d="M158.65,191.54c-14.91.01-29.81.02-44.72.03.76-4.72-1.67-7.64-5.11-10.57-13.84-11.78-28.3-22.38-45.98-27.81-14.91-4.58-30.23-6.03-45.71-6.41-4.86-.12-9.72-.14-14.58-.03-1.93.04-2.58-.49-2.52-2.48.14-4.48.1-8.97.02-13.46-.03-1.53.36-2.45,1.82-3.22,25.31-13.23,51.92-21.52,80.76-21.1,12.87.19,25.56,1.93,37.89,5.85-4.79,6.39-6.91,13.5-6.78,21.54.23,14.18.15,28.36,0,42.54-.03,3.04.74,4.07,3.92,4.02,12.44-.18,24.88.02,37.32-.14,2.94-.04,4.05.8,3.77,3.78-.24,2.47-.08,4.97-.1,7.46Z"/><path class="cls-1" d="M203.62,90.48c-7.45.03-14.9.07-22.35.1-.67-23.05,15.01-44.71,38.32-51.63,15.83-4.7,31.96-8.41,48.02-12.32,2.84-.69,3.45-1.86,3.38-4.5-.17-6.47.03-12.96-.1-19.43-.04-2.11.56-2.75,2.69-2.69,5.73.14,11.46.14,17.19,0,2.15-.05,2.68.63,2.66,2.71-.09,12.58-.14,25.16.03,37.74.03,2.51-1.09,3.09-3.05,3.57-19.3,4.8-38.55,9.78-57.89,14.41-11.97,2.87-21.24,8.86-26.27,20.46-1.6,3.69-2.45,7.55-2.63,11.57Z"/><path class="cls-1" d="M293.33,91.13c-7.44-1.22-14.95-.14-22.41-.65,0-5.85.08-11.71-.03-17.56-.04-2.16.31-3.16,2.84-3.56,21.98-3.53,43.91-7.31,65.88-10.89,2.3-.38,3.76-1.27,5.02-3.22,5.35-8.24,10.93-16.34,16.26-24.59,1.34-2.08,2.3-2.17,4.25-.78,4.66,3.32,9.45,6.45,14.27,9.53,1.51.96,1.67,1.67.65,3.18-7.65,11.34-15.25,22.72-22.77,34.14-.95,1.44-2.1,1.81-3.64,2.07-19.02,3.14-38.02,6.35-57.03,9.51-1.72.29-3.66.16-3.28,2.82Z"/><path class="cls-4" d="M134.67,281.39c7.37,3.24,15,2.46,22.64,1.5-4.21,19.29-15.52,32.87-33.63,40.39-9.16,3.8-18.71,6.72-28.23,9.59-3.49,1.05-4.33,2.65-4.17,6.01.27,5.97-.01,11.96.12,17.93.05,2.28-.35,3.3-2.98,3.2-5.72-.22-11.46-.12-17.19-.03-1.73.03-2.38-.42-2.37-2.27.07-12.45.1-24.91-.02-37.36-.02-2.27,1.27-2.58,2.84-3.09,13.57-4.49,27.14-8.97,40.68-13.53,11.1-3.74,18.65-11.1,22.3-22.32Z"/><path class="cls-1" d="M157.31,100.28c-7.63-2.37-15.13-1.22-22.6.8-4.68-12.03-13.48-19.16-25.78-22.82-12.51-3.72-24.78-8.24-37.2-12.27-2.08-.68-2.92-1.49-2.89-3.82.14-11.97.13-23.94,0-35.9-.03-2.44.62-3.16,3.08-3.08,5.6.19,11.22.16,16.83,0,2.18-.06,2.68.68,2.65,2.74-.12,6.61.08,13.22-.11,19.82-.07,2.46.8,3.42,3.05,4.14,9.36,2.99,18.8,5.79,27.92,9.4,18.79,7.44,30.71,21.04,35.04,40.99Z"/><path class="cls-5" d="M238.12,135.48c2.85.27,7.29-1.46,9.51.64,2.42,2.29.79,6.83.79,10.37,0,3.67,1.66,8.37-.78,10.75-2.26,2.21-6.88.53-10.45.66-2.86.11-5.72-.06-8.58.04-1.96.07-2.62-.74-2.6-2.64.07-5.72.1-11.44,0-17.16-.04-2.22.96-2.76,2.94-2.69,2.86.1,5.72.03,9.18.03Z"/><path class="cls-5" d="M270.94,145.95c.44-2.94-1.61-7.46.82-9.8,2.23-2.14,6.65-.52,10.1-.65,2.98-.11,5.97.05,8.95-.05,1.95-.06,2.63.73,2.6,2.64-.07,5.72-.1,11.44,0,17.16.04,2.21-.94,2.73-2.93,2.7-5.59-.08-11.19-.09-16.78,0-2.11.04-2.88-.75-2.8-2.83.12-2.85.03-5.72.03-9.18Z"/><path class="cls-4" d="M293.37,291.94c-.44,2.6,1.36,2.63,3.15,2.93,19.02,3.15,38.02,6.38,57.04,9.48,1.91.31,3.08,1.06,4.12,2.64,7.25,11.02,14.54,22.01,21.96,32.92,1.37,2.01,1.28,2.99-.81,4.29-4.65,2.89-9.22,5.91-13.67,9.09-1.94,1.38-2.88,1.32-4.24-.78-5.32-8.26-10.9-16.36-16.26-24.59-1.27-1.95-2.76-2.83-5.06-3.2-21.61-3.5-43.18-7.18-64.79-10.65-2.97-.48-4.17-1.33-3.97-4.6.34-5.58.09-11.2.09-16.81,7.48-.24,14.99.35,22.44-.71Z"/><path class="cls-5" d="M238.06,225.26c2.95.44,7.52-1.62,9.81.82,2.08,2.21.49,6.67.6,10.13.1,2.86-.06,5.74.05,8.6.07,1.96-.39,2.98-2.66,2.93-5.73-.12-11.47-.09-17.2-.01-1.9.03-2.68-.57-2.64-2.56.09-5.73.11-11.47,0-17.2-.04-2.17.8-2.83,2.85-2.74,2.86.12,5.73.03,9.2.03Z"/><path class="cls-5" d="M282.17,225.26c2.87,0,5.74.08,8.6-.03,1.89-.07,2.68.56,2.65,2.56-.09,5.86-.08,11.72-.01,17.58.02,1.81-.74,2.37-2.46,2.36-5.86-.06-11.72-.06-17.58,0-1.72.02-2.47-.56-2.45-2.36.06-5.86.08-11.72-.01-17.58-.03-2,.77-2.61,2.66-2.55,2.86.1,5.73.03,8.6.03Z"/></svg>